<?xml version="1.0" encoding="UTF-8" standalone="no"?>
<!DOCTYPE svg PUBLIC "-//W3C//DTD SVG 1.1//EN" "http://www.w3.org/Graphics/SVG/1.1/DTD/svg11.dtd">
<svg version="1.1" xmlns="http://www.w3.org/2000/svg" xmlns:xlink="http://www.w3.org/1999/xlink" preserveAspectRatio="xMidYMid meet" viewBox="0 0 480 480" width="640" height="480"><defs><path d="M-44 83.92L524 83.92L524 381.08L-44 381.08L-44 83.92Z" id="egMbkgn0z"></path><path d="M158.9 206.42L173.95 204.67L192.4 205.29C201.56 205.73 207.4 206.11 209.9 206.42C212.4 206.74 217.4 207.38 224.9 208.33C231.17 209.56 235.65 210.5 238.33 211.17C241 211.84 246.36 213.17 254.39 215.17C262.18 218.09 267.18 219.92 269.4 220.67C271.61 221.42 275.8 223.25 281.96 226.17L294.75 232.5L305.69 238.26C312.08 241.84 315.98 244.26 317.4 245.54C318.81 246.81 321.97 249.35 326.87 253.17L337.91 260.67L341.4 244.96L316.51 228.94L296.9 216.43L275.4 209.02L254.39 200.32L231.4 195.59L212.9 192.67L186.35 191.2L165.31 191.2L147.37 192.67L141.9 208.33L158.9 206.42Z" id="f1lP3Wev96"></path><path d="M-51.96 424L-51.96 46L531.96 46L531.96 424L-51.96 424ZM238.38 93.02L236.23 94.27L233.3 95.97L229.66 98.1L225.33 100.64L220.37 103.55L214.82 106.81L208.73 110.38L202.14 114.26L195.1 118.4L187.65 122.79L179.83 127.39L171.7 132.17L163.3 137.12L154.67 142.21L145.86 147.4L136.92 152.67L127.89 157.99L118.81 163.35L109.73 168.7L100.7 174.03L91.76 179.31L82.95 184.5L74.33 189.59L65.94 194.55L57.82 199.35L50.01 203.96L42.57 208.36L35.54 212.51L28.97 216.4L22.89 220L17.36 223.28L12.42 226.21L8.11 228.76L4.49 230.92L1.59 232.65L-0.54 233.92L-1.85 234.71L-2.29 235L-1.85 235.28L-0.54 236.07L1.58 237.34L4.48 239.07L8.1 241.22L12.4 243.77L17.33 246.7L22.86 249.97L28.93 253.56L35.5 257.45L42.52 261.6L49.95 265.99L57.75 270.6L65.86 275.39L74.24 280.34L82.86 285.43L91.65 290.62L100.58 295.89L109.61 301.22L118.68 306.57L127.75 311.92L136.77 317.24L145.71 322.51L154.51 327.7L163.13 332.78L171.52 337.72L179.65 342.51L187.46 347.11L194.9 351.49L201.94 355.64L208.53 359.51L214.62 363.09L220.17 366.35L225.13 369.26L229.45 371.8L233.1 373.94L236.02 375.64L238.18 376.9L239.52 377.67L240 377.93L240.48 377.67L241.82 376.9L243.98 375.64L246.9 373.94L250.55 371.8L254.87 369.26L259.83 366.35L265.38 363.09L271.47 359.51L278.06 355.64L285.1 351.49L292.54 347.11L300.35 342.51L308.48 337.72L316.87 332.78L325.49 327.7L334.29 322.51L343.23 317.24L352.25 311.92L361.32 306.57L370.39 301.22L379.42 295.89L388.35 290.62L397.14 285.43L405.76 280.34L414.14 275.39L422.25 270.6L430.05 265.99L437.48 261.6L444.5 257.45L451.07 253.56L457.14 249.97L462.67 246.7L467.6 243.77L471.9 241.22L475.52 239.07L478.42 237.34L480.54 236.07L481.85 235.28L482.29 235L482.19 234.93L481.89 234.75L481.39 234.45L480.7 234.03L479.83 233.51L478.77 232.87L477.52 232.13L476.11 231.29L474.52 230.35L472.76 229.3L470.84 228.16L468.75 226.93L466.51 225.6L464.12 224.18L461.58 222.68L458.9 221.09L456.07 219.41L453.11 217.66L450.02 215.83L446.79 213.92L443.45 211.94L439.98 209.89L436.39 207.77L432.69 205.58L428.89 203.33L424.98 201.02L420.96 198.65L416.85 196.22L412.65 193.74L408.36 191.2L403.98 188.62L399.53 185.98L394.99 183.31L390.38 180.58L385.71 177.82L380.96 175.02L376.16 172.19L371.3 169.32L366.38 166.41L361.42 163.48L356.46 160.55L351.54 157.65L346.68 154.78L341.87 151.95L337.13 149.15L332.45 146.38L327.83 143.66L323.3 140.98L318.83 138.35L314.45 135.76L310.15 133.23L305.94 130.75L301.83 128.32L297.81 125.95L293.89 123.63L290.07 121.38L286.36 119.2L282.77 117.08L279.29 115.03L275.93 113.05L272.7 111.14L269.6 109.31L266.62 107.56L263.79 105.89L261.09 104.3L258.54 102.8L256.13 101.38L253.88 100.05L251.79 98.82L249.85 97.68L248.08 96.64L246.48 95.69L245.05 94.85L243.79 94.11L242.72 93.48L241.83 92.96L241.12 92.55L240.61 92.25L240.3 92.07L240.18 92L239.71 92.26L238.38 93.02Z" id="bh1FX942h"></path><path d="M237.22 136.86L237.8 136.86L238.41 136.87L239.03 136.88L239.67 136.89L240.31 136.9L240.97 136.92L241.63 136.93L242.3 136.95L242.97 136.97L243.64 136.99L244.31 137.01L244.98 137.03L245.64 137.06L246.29 137.08L246.93 137.11L247.57 137.14L248.18 137.17L248.78 137.2L249.37 137.23L249.93 137.26L250.47 137.29L250.98 137.33L251.47 137.36L251.93 137.39L252.36 137.43L252.76 137.46L253.12 137.5L253.44 137.53L253.72 137.57L255.78 137.88L257.83 138.21L259.86 138.59L261.88 139L263.88 139.44L265.87 139.92L267.84 140.43L269.79 140.97L271.73 141.55L273.65 142.16L275.56 142.8L277.45 143.48L279.31 144.19L281.16 144.93L283 145.7L284.81 146.51L286.6 147.34L288.38 148.21L290.13 149.11L291.86 150.04L293.57 151.01L295.26 152L296.93 153.02L298.57 154.07L300.2 155.16L301.8 156.27L303.37 157.41L304.93 158.59L306.46 159.79L307.96 161.02L309.44 162.28L310.89 163.57L312.32 164.88L313.72 166.23L315.1 167.6L316.45 169L317.77 170.43L319.06 171.89L320.33 173.37L321.57 174.88L322.69 176.3L323.77 177.73L324.83 179.18L325.86 180.65L326.86 182.13L327.83 183.62L328.77 185.13L329.67 186.66L330.55 188.19L331.39 189.74L332.21 191.3L332.99 192.87L333.75 194.46L334.47 196.05L335.16 197.66L335.82 199.28L336.44 200.91L337.04 202.54L337.6 204.19L338.13 205.84L338.63 207.51L339.1 209.18L339.53 210.86L339.93 212.54L340.3 214.24L340.64 215.94L340.95 217.64L341.22 219.36L341.46 221.07L341.66 222.79L341.83 224.52L341.97 226.25L342.07 227.99L342.15 229.72L342.18 231.46L342.19 233.21L342.16 234.95L342.09 236.7L341.99 238.45L341.86 240.19L341.84 240.4L341.82 240.61L341.8 240.82L341.78 241.02L341.76 241.22L341.74 241.42L341.73 241.62L341.71 241.81L341.69 242L341.67 242.19L341.65 242.38L341.63 242.56L341.61 242.73L341.6 242.91L341.58 243.08L341.56 243.24L341.54 243.41L341.53 243.56L341.51 243.71L341.49 243.86L341.48 244L341.46 244.14L341.45 244.27L341.43 244.4L341.42 244.52L341.4 244.63L341.39 244.74L341.37 244.85L341.36 244.94L341.35 245.03L341.33 245.11L341.32 245.19L341.31 245.26L341.3 245.32L341.29 245.38L341.28 245.42L341.27 245.46L341.26 245.49L341.25 245.51L341.24 245.53L341.23 245.54L341.21 245.54L341.19 245.53L341.15 245.52L341.11 245.51L341.06 245.48L341.01 245.46L340.95 245.42L340.88 245.39L340.8 245.34L340.72 245.29L340.63 245.24L340.53 245.18L340.43 245.12L340.33 245.05L340.21 244.98L340.1 244.9L339.97 244.82L339.84 244.74L339.71 244.65L339.57 244.56L339.43 244.46L339.28 244.36L339.13 244.25L338.97 244.15L338.81 244.03L338.65 243.92L338.48 243.8L338.31 243.68L338.13 243.56L337.96 243.43L337.77 243.3L337.59 243.17L337.4 243.03L337.22 242.9L337.02 242.76L336.83 242.62L336.64 242.47L336.44 242.33L336.24 242.18L333.29 240.01L330.32 237.89L327.32 235.81L324.29 233.78L321.24 231.8L318.16 229.86L315.06 227.97L311.93 226.12L308.77 224.33L305.6 222.57L302.39 220.87L299.17 219.21L295.92 217.6L292.64 216.03L289.35 214.51L286.03 213.04L282.68 211.62L279.32 210.24L275.93 208.91L272.52 207.63L269.09 206.39L265.63 205.2L262.16 204.06L258.66 202.97L255.14 201.93L251.6 200.93L248.04 199.99L244.47 199.09L240.87 198.23L237.25 197.43L233.61 196.68L229.95 195.97L226.28 195.31L222.58 194.7L218.87 194.14L215.14 193.63L211.39 193.17L207.62 192.76L203.84 192.39L200.04 192.08L199.04 192.01L198 191.94L196.93 191.88L195.82 191.83L194.69 191.78L193.52 191.74L192.33 191.7L191.11 191.67L189.86 191.64L188.6 191.62L187.31 191.61L186.01 191.6L184.69 191.59L183.36 191.59L182.02 191.6L180.66 191.61L179.3 191.63L177.94 191.65L176.57 191.68L175.19 191.71L173.82 191.74L172.45 191.79L171.08 191.83L169.72 191.88L168.37 191.94L167.03 192L165.7 192.06L164.38 192.13L163.08 192.21L161.8 192.29L160.54 192.37L159.3 192.46L158.08 192.55L156.89 192.65L155.73 192.75L154.6 192.85L153.5 192.96L152.43 193.07L151.4 193.19L150.4 193.31L150.25 193.33L150.1 193.35L149.96 193.36L149.81 193.38L149.67 193.4L149.53 193.41L149.39 193.43L149.25 193.45L149.11 193.46L148.98 193.48L148.85 193.49L148.72 193.5L148.59 193.52L148.47 193.53L148.35 193.54L148.23 193.56L148.12 193.57L148.01 193.58L147.9 193.59L147.8 193.6L147.7 193.61L147.6 193.62L147.51 193.63L147.42 193.64L147.34 193.65L147.26 193.65L147.18 193.66L147.11 193.67L147.04 193.67L146.98 193.68L146.92 193.68L146.87 193.68L146.82 193.69L146.78 193.69L146.74 193.69L146.71 193.69L146.69 193.69L146.67 193.69L146.65 193.69L146.64 193.69L146.64 193.68L146.64 193.66L146.64 193.64L146.65 193.62L146.66 193.59L146.67 193.55L146.69 193.5L146.71 193.46L146.73 193.4L146.76 193.34L146.79 193.28L146.82 193.21L146.85 193.13L146.89 193.06L146.93 192.97L146.97 192.88L147.01 192.79L147.06 192.7L147.11 192.59L147.16 192.49L147.21 192.38L147.27 192.27L147.33 192.15L147.39 192.03L147.45 191.91L147.51 191.79L147.58 191.66L147.65 191.53L147.72 191.39L147.79 191.25L147.86 191.11L147.94 190.97L148.01 190.83L148.09 190.68L148.17 190.53L148.25 190.38L148.33 190.22L148.41 190.07L148.49 189.91L148.58 189.75L149.44 188.18L150.33 186.63L151.25 185.09L152.2 183.57L153.17 182.07L154.18 180.59L155.21 179.13L156.27 177.69L157.35 176.26L158.47 174.86L159.61 173.48L160.77 172.11L161.96 170.77L163.18 169.45L164.42 168.15L165.68 166.87L166.97 165.61L168.28 164.38L169.62 163.17L170.98 161.98L172.36 160.81L173.76 159.67L175.19 158.55L176.63 157.46L178.1 156.39L179.59 155.34L181.1 154.32L182.63 153.33L184.18 152.36L185.75 151.42L187.33 150.5L188.94 149.61L190.56 148.75L192.2 147.91L193.86 147.1L195.54 146.32L197.23 145.57L198.94 144.85L200.67 144.15L202.41 143.49L203.12 143.23L203.83 142.97L204.53 142.72L205.24 142.48L205.94 142.24L206.64 142.01L207.34 141.78L208.05 141.56L208.75 141.34L209.45 141.13L210.15 140.93L210.86 140.73L211.56 140.53L212.27 140.35L212.98 140.16L213.69 139.98L214.41 139.81L215.13 139.64L215.85 139.47L216.57 139.31L217.31 139.15L218.04 139L218.78 138.86L219.53 138.71L220.28 138.57L221.04 138.44L221.81 138.31L222.58 138.18L223.36 138.06L224.14 137.94L224.94 137.83L225.74 137.72L226.56 137.61L227.38 137.51L228.21 137.41L229.05 137.31L229.9 137.22L230.76 137.13L231.63 137.04L232.52 136.96L232.77 136.93L233.07 136.91L233.4 136.9L233.77 136.88L234.18 136.87L234.61 136.87L235.08 136.86L235.58 136.86L236.1 136.85L236.65 136.85L237.22 136.86ZM271.17 200.12L270.98 200.61L270.75 200.94L270.43 201.13L269.93 201.24L269.2 201.31L267.55 201.42L268.79 202.37L269.37 202.84L269.7 203.2L269.83 203.53L269.78 203.92L269.6 204.46L269.36 205.18L269.33 205.6L269.53 205.72L269.96 205.57L270.66 205.14L271.79 204.39L273.1 205.35L273.63 205.7L273.98 205.91L274.18 205.97L274.25 205.89L274.2 205.69L273.82 204.69L273.66 203.96L273.74 203.39L274.09 202.9L274.71 202.37L275.95 201.42L274.23 201.38L273.45 201.37L272.94 201.3L272.62 201.13L272.43 200.83L272.3 200.36L272.09 199.65L271.86 199.28L271.63 199.23L271.39 199.5L271.17 200.12Z" id="f1WJQddDsq"></path><path d="M179.01 194.32L180.17 194.91L180.98 195.77L181.45 196.89L181.61 198.3L181.46 199.71L181 200.84L180.22 201.69L179.1 202.29L177.62 202.64L175.77 202.75L173.21 202.75L173.21 193.86L175.59 193.86L177.49 193.97L179.01 194.32ZM174.93 195.47L174.83 195.77L174.75 196.46L174.69 197.43L174.67 198.58L174.67 201.45L176.75 201.31L178.3 201.04L179.35 200.49L179.96 199.62L180.15 198.41L180.05 197.35L179.72 196.57L179.15 196L178.29 195.6L177.26 195.35L176.25 195.24L175.42 195.27L174.93 195.47Z" id="a2pTBC3IiV"></path><path d="M160.33 194.58C160.46 196.57 160.53 197.67 160.55 197.89C160.7 199.71 160.8 201.72 160.8 202.3C160.8 203.19 160.95 203.43 161.53 203.43C162.16 203.43 162.26 203.19 162.26 201.72C162.26 201.61 162.26 201.04 162.26 200.01C163.53 200.01 164.24 200.01 164.38 200.01C166.32 200.01 166.57 200.08 166.94 200.87C167.19 201.35 167.37 202.07 167.37 202.41C167.37 202.85 167.63 203.09 168.1 203.09C169.02 203.09 169.05 202.2 168.29 200.46C167.78 199.36 167.78 199.16 168.29 198.65C168.98 197.96 168.98 196.29 168.32 195.47C167.63 194.61 166.21 194.34 163.03 194.47C162.67 194.49 161.77 194.52 160.33 194.58Z" id="anUfeUahC"></path><path d="M198.8 203.36C199.31 203.43 199.45 202.95 199.67 200.29C199.96 196.8 200.18 196.94 200.95 200.94C201.31 202.82 201.57 203.43 202.12 203.54C202.81 203.71 203.14 203.19 204.49 199.6C205.18 197.82 205.77 197.41 205.51 198.88C205.44 199.43 205.26 200.73 205.15 201.79C204.96 203.6 205.04 203.78 205.66 203.78C206.24 203.78 206.39 203.43 206.61 201.62C206.75 200.46 206.86 198.51 206.9 197.28C206.97 195.12 206.94 195.05 206.02 194.95C205.15 194.85 205 195.05 203.87 197.79C203.21 199.4 202.56 200.59 202.41 200.46C202.26 200.32 201.94 199.19 201.72 197.96C201.06 194.61 201.02 194.54 199.85 194.54C198.83 194.54 198.8 194.61 198.58 196.66C198.1 201.07 198.18 203.23 198.8 203.36Z" id="j8stUTNUs"></path><path d="M153.8 196.06L154.78 196.73L155.46 197.29L155.89 197.76L156.11 198.27L156.21 198.95L156.24 199.95L156.22 200.92L156.14 201.61L155.96 202.14L155.64 202.59L155.15 203.09L153.77 204L152.31 204.32L150.89 204.08L149.63 203.28L148.65 201.96L148.19 200.69L148.1 199.46L148.39 198.3L149.05 197.23L150.07 196.29L150.97 195.79L151.89 195.59L152.84 195.68L153.8 196.06ZM150.55 197.93L149.83 198.78L149.53 199.64L149.65 200.56L150.18 201.59L151.02 202.48L151.96 202.86L152.96 202.7L153.98 202L154.53 201.44L154.83 200.96L154.92 200.43L154.86 199.74L154.69 199.17L154.42 198.61L154.08 198.1L153.69 197.69L152.85 197.14L152.13 196.99L151.4 197.25L150.55 197.93Z" id="c27Fv5toHd"></path><path d="M185.62 200.94C185.62 201.06 185.62 201.66 185.62 202.75C187 202.75 187.77 202.75 187.92 202.75C189.16 202.75 191.06 202.85 192.12 202.99C194.02 203.19 194.09 203.16 193.94 202.37C193.83 201.59 193.72 201.55 190.48 201.45C190.25 201.44 189.12 201.41 187.08 201.35L187.08 199.98L187.08 198.58C188.7 198.72 189.6 198.8 189.78 198.82C192.3 199.06 192.45 199.02 192.67 198.34C192.85 197.65 192.7 197.62 190.44 197.62C187.56 197.62 186.9 197.31 187.19 196.18C187.41 195.36 187.48 195.36 190.73 195.5C193.8 195.64 194.02 195.6 194.02 194.99C194.02 194.41 193.69 194.27 191.57 194.1C190.18 193.96 188.43 193.86 187.59 193.86C187.49 193.86 186.99 193.86 186.1 193.86L185.84 196.49C185.69 198.77 185.62 200.25 185.62 200.94Z" id="c17psryHC"></path><path d="M218.83 201.55C218.43 203.6 218.14 205.28 218.21 205.31C218.25 205.38 219.45 205.59 220.84 205.79C222.26 206.03 223.76 206.27 224.16 206.37C224.71 206.51 225 206.37 225.15 205.86C225.29 205.25 225.07 205.14 222.59 204.77C222.41 204.74 221.51 204.6 219.89 204.36C219.96 203.72 219.99 203.37 220 203.3C220.11 202.13 220.58 202.03 223.25 202.51C224.38 202.71 224.6 202.68 224.78 202.1C224.93 201.55 224.71 201.42 223.61 201.24C220.37 200.7 220.4 200.7 220.58 199.84C220.69 199.16 220.91 199.06 221.72 199.19C226.24 199.95 226.13 199.95 226.13 199.3C226.13 198.61 225.95 198.54 222.34 197.96C220.04 197.59 219.56 197.55 219.56 197.72C219.56 197.79 219.23 199.5 218.83 201.55Z" id="eqxNMQ16G"></path><path d="M236.86 208.08C236.72 208.63 236.86 208.87 237.37 208.97C238.03 209.14 238.18 208.9 238.54 207.47C238.8 206.48 239.16 205.83 239.42 205.93C241.39 206.61 243.76 206.96 244.63 206.65C246.57 206.03 247.12 203.64 245.66 202.27C245.07 201.76 242.52 200.9 240.26 200.53C240.18 200.51 239.79 200.44 239.09 200.32L238.07 203.84C237.34 206.42 236.93 207.83 236.86 208.08Z" id="aqqKVPGIu"></path><path d="M248.76 211.54C248.76 211.74 249.09 211.98 249.45 212.08C250.04 212.22 250.22 211.98 250.58 210.72C250.61 210.61 250.74 210.1 250.99 209.18C251.8 209.32 252.25 209.4 252.34 209.42C253.07 209.52 254.09 209.86 254.56 210.17C255.33 210.61 255.4 210.85 255.22 212.15C255.04 213.32 255.11 213.66 255.58 213.83C256.42 214.14 256.53 213.93 256.57 211.81C256.57 210.58 256.75 209.93 257.04 209.93C258.43 209.93 259.12 206.72 257.96 205.72C257.37 205.25 252.44 203.43 251.68 203.43C251.57 203.43 250.88 205.18 250.11 207.3C249.38 209.42 248.76 211.33 248.76 211.54Z" id="b3mf0ynolg"></path><path d="M178.2 205.29L178.9 205.29L179.64 205.3L180.39 205.3L181.15 205.31L181.94 205.32L182.73 205.33L183.54 205.34L184.35 205.36L185.17 205.37L185.99 205.39L186.81 205.4L187.64 205.42L188.45 205.44L189.27 205.46L190.07 205.48L190.86 205.5L191.64 205.52L192.4 205.55L193.15 205.57L193.87 205.59L194.58 205.62L195.25 205.64L195.9 205.67L196.53 205.7L197.11 205.72L197.67 205.75L198.18 205.78L198.66 205.8L199.1 205.83L199.49 205.86L203.25 206.17L207 206.53L210.73 206.94L214.45 207.41L218.15 207.94L221.84 208.51L225.51 209.14L229.17 209.83L232.81 210.56L236.43 211.35L240.03 212.19L243.62 213.08L247.18 214.03L250.73 215.02L254.25 216.07L257.76 217.17L261.24 218.32L264.7 219.52L268.14 220.77L271.55 222.07L274.94 223.43L278.31 224.83L281.65 226.28L284.96 227.78L288.25 229.33L291.52 230.93L294.75 232.57L297.96 234.27L301.14 236.01L304.29 237.81L307.41 239.65L310.5 241.53L313.56 243.47L316.59 245.45L319.59 247.48L322.56 249.55L325.49 251.68L328.39 253.84L331.25 256.06L334.09 258.32L334.37 258.54L334.64 258.76L334.89 258.96L335.13 259.15L335.35 259.33L335.56 259.5L335.76 259.66L335.94 259.81L336.11 259.96L336.27 260.1L336.41 260.23L336.54 260.36L336.66 260.49L336.76 260.62L336.85 260.74L336.93 260.86L337 260.99L337.06 261.11L337.1 261.24L337.14 261.37L337.16 261.5L337.17 261.64L337.17 261.79L337.16 261.94L337.14 262.1L337.11 262.27L337.07 262.44L337.02 262.63L336.96 262.83L336.89 263.04L336.81 263.26L336.73 263.5L336.63 263.75L336.53 264.02L336.41 264.31L336.29 264.61L336.16 264.93L336.03 265.27L335.88 265.63L335.73 266.01L335.4 266.83L335.06 267.65L334.71 268.47L334.35 269.29L333.97 270.11L333.58 270.94L333.18 271.77L332.77 272.6L332.35 273.43L331.92 274.25L331.48 275.08L331.03 275.91L330.56 276.74L330.09 277.56L329.61 278.38L329.12 279.2L328.63 280.02L328.12 280.83L327.61 281.64L327.08 282.45L326.55 283.25L326.02 284.05L325.47 284.84L324.92 285.62L324.36 286.4L323.8 287.17L323.23 287.94L322.65 288.69L322.07 289.44L321.49 290.19L320.89 290.92L320.3 291.64L319.7 292.36L319.1 293.06L318.49 293.76L317.88 294.44L317.26 295.11L316.64 295.78L316.02 296.43L315.4 297.06L314.11 298.34L312.81 299.59L311.5 300.81L310.17 302L308.83 303.17L307.47 304.31L306.1 305.43L304.71 306.52L303.31 307.58L301.89 308.62L300.46 309.63L299.02 310.62L297.56 311.57L296.08 312.51L294.59 313.41L293.08 314.29L291.56 315.15L290.03 315.97L288.48 316.78L286.92 317.55L285.33 318.3L283.74 319.02L282.13 319.72L280.5 320.39L278.86 321.04L277.21 321.66L275.54 322.25L273.85 322.82L272.15 323.36L270.43 323.87L268.7 324.36L266.95 324.82L265.19 325.26L263.41 325.67L261.61 326.06L259.8 326.42L257.98 326.75L256.14 327.06L254.28 327.34L252.41 327.6L252.04 327.65L251.64 327.69L251.2 327.73L250.72 327.77L250.21 327.8L249.67 327.84L249.1 327.87L248.5 327.9L247.88 327.92L247.24 327.95L246.57 327.97L245.89 327.99L245.19 328.01L244.47 328.02L243.75 328.03L243.01 328.04L242.27 328.05L241.51 328.06L240.76 328.06L240 328.06L239.24 328.06L238.49 328.06L237.73 328.05L236.99 328.04L236.25 328.03L235.53 328.02L234.81 328.01L234.11 327.99L233.43 327.97L232.76 327.95L232.12 327.92L231.5 327.9L230.9 327.87L230.33 327.84L229.79 327.8L229.28 327.77L228.8 327.73L228.36 327.69L227.96 327.65L227.59 327.6L225.96 327.38L224.34 327.14L222.73 326.87L221.12 326.59L219.53 326.28L217.94 325.96L216.37 325.61L214.8 325.24L213.24 324.86L211.7 324.45L210.16 324.02L208.64 323.57L207.12 323.1L205.62 322.61L204.13 322.1L202.64 321.57L201.18 321.03L199.72 320.46L198.27 319.87L196.84 319.26L195.42 318.63L194.01 317.99L192.62 317.32L191.23 316.64L189.87 315.93L188.51 315.21L187.17 314.47L185.84 313.71L184.53 312.93L183.23 312.13L181.95 311.31L180.68 310.48L179.43 309.63L178.19 308.75L176.97 307.87L175.76 306.96L174.57 306.03L173.4 305.09L172.24 304.13L171.1 303.15L169.74 301.95L168.4 300.73L167.1 299.5L165.83 298.25L164.58 296.99L163.36 295.72L162.17 294.43L161 293.13L159.87 291.82L158.76 290.49L157.68 289.15L156.63 287.8L155.61 286.43L154.61 285.05L153.65 283.65L152.71 282.24L151.8 280.82L150.91 279.38L150.06 277.93L149.23 276.46L148.43 274.98L147.66 273.48L146.92 271.98L146.2 270.45L145.51 268.92L144.85 267.36L144.22 265.8L143.61 264.22L143.03 262.62L142.48 261.01L141.96 259.39L141.47 257.75L141 256.1L140.56 254.43L140.15 252.75L139.77 251.06L139.41 249.35L139.08 247.62L138.78 245.88L138.51 244.13L138.46 243.78L138.41 243.41L138.37 242.99L138.33 242.54L138.29 242.07L138.25 241.56L138.22 241.03L138.19 240.47L138.16 239.89L138.14 239.28L138.11 238.66L138.09 238.02L138.07 237.36L138.06 236.69L138.04 236.01L138.03 235.32L138.02 234.62L138.02 233.92L138.01 233.21L138.01 232.5L138.01 231.79L138.02 231.08L138.02 230.38L138.03 229.68L138.04 228.99L138.06 228.31L138.07 227.64L138.09 226.98L138.11 226.34L138.14 225.72L138.16 225.11L138.19 224.53L138.22 223.97L138.25 223.44L138.29 222.93L138.33 222.46L138.37 222.01L138.41 221.59L138.46 221.22L138.51 220.87L138.56 220.54L138.61 220.19L138.67 219.84L138.73 219.47L138.79 219.1L138.86 218.73L138.92 218.34L138.99 217.96L139.06 217.57L139.14 217.17L139.21 216.78L139.29 216.38L139.36 215.99L139.44 215.6L139.52 215.2L139.6 214.81L139.68 214.43L139.75 214.05L139.83 213.68L139.91 213.31L139.99 212.95L140.07 212.6L140.14 212.25L140.22 211.92L140.29 211.6L140.36 211.29L140.43 211L140.5 210.71L140.57 210.45L140.63 210.2L140.69 209.96L140.75 209.75L140.81 209.55L140.86 209.37L140.91 209.21L140.95 209.08L141 208.97L141.03 208.87L141.07 208.81L141.1 208.77L141.13 208.74L141.18 208.71L141.22 208.68L141.28 208.65L141.35 208.62L141.42 208.59L141.5 208.55L141.59 208.52L141.69 208.49L141.8 208.46L141.92 208.43L142.05 208.4L142.19 208.37L142.34 208.33L142.5 208.3L142.68 208.26L142.87 208.23L143.07 208.19L143.29 208.16L143.51 208.12L143.76 208.08L144.02 208.04L144.29 208L144.58 207.96L144.89 207.91L145.21 207.87L145.55 207.82L145.9 207.77L146.28 207.72L146.67 207.67L147.08 207.62L147.51 207.56L147.96 207.51L148.43 207.45L148.92 207.39L149.43 207.33L149.96 207.26L150.51 207.2L151.08 207.13L151.68 207.06L152.18 207L152.68 206.94L153.18 206.88L153.69 206.83L154.2 206.77L154.72 206.71L155.24 206.66L155.76 206.6L156.29 206.55L156.82 206.5L157.35 206.44L157.88 206.39L158.42 206.34L158.95 206.29L159.49 206.24L160.04 206.2L160.58 206.15L161.12 206.1L161.67 206.06L162.21 206.01L162.75 205.97L163.3 205.92L163.84 205.88L164.39 205.84L164.93 205.8L165.47 205.76L166.02 205.73L166.56 205.69L167.09 205.65L167.63 205.62L168.17 205.59L168.7 205.56L169.23 205.52L169.76 205.5L170.28 205.47L170.8 205.44L171.32 205.42L171.83 205.39L172.34 205.37L172.85 205.35L173.21 205.33L173.61 205.32L174.06 205.31L174.54 205.3L175.07 205.3L175.63 205.29L176.23 205.29L176.86 205.29L177.51 205.29L178.2 205.29ZM198.23 281.34L198 281.76L197.69 281.98L197.2 282.07L196.46 282.08L194.96 282.08L196.17 283.01L196.69 283.45L197 283.81L197.14 284.13L197.12 284.48L196.97 284.92L196.69 285.68L196.62 286.13L196.76 286.27L197.14 286.13L197.77 285.71L198.98 284.85L200.04 285.68L200.78 286.21L201.24 286.44L201.43 286.35L201.39 285.95L201.13 285.2L200.91 284.54L200.83 284.08L200.93 283.74L201.24 283.41L201.79 282.97L202.96 282.12L201.42 282.08L200.88 282.06L200.45 282.01L200.12 281.91L199.92 281.79L199.85 281.64L199.81 281.47L199.74 281.22L199.63 280.91L199.51 280.57L199.38 280.24L198.91 279.25L198.47 280.65L198.23 281.34ZM239.78 272.04L239.66 272.28L239.53 272.58L239.42 272.92L239.23 273.42L239.01 273.77L238.69 273.99L238.22 274.13L237.52 274.22L235.99 274.39L237.08 275.07L237.65 275.48L237.97 275.93L238.06 276.48L237.93 277.2L237.59 278.15L237.46 278.47L237.43 278.63L237.52 278.65L237.76 278.51L238.18 278.22L238.87 277.79L239.39 277.51L239.81 277.36L240.15 277.34L240.47 277.43L240.65 277.53L240.9 277.67L241.19 277.84L241.51 278.03L241.82 278.22L242.24 278.51L242.48 278.65L242.57 278.63L242.54 278.47L242.41 278.15L242.07 277.2L241.94 276.48L242.03 275.93L242.35 275.48L242.92 275.07L244.01 274.39L242.48 274.22L241.78 274.13L241.31 273.99L240.99 273.77L240.77 273.42L240.58 272.92L240.47 272.58L240.34 272.28L240.22 272.04L240.1 271.88L240 271.83L239.9 271.88L239.78 272.04ZM311.08 263.37L310.97 263.68L310.88 263.96L310.82 264.19L310.8 264.34L310.71 264.43L310.47 264.52L310.1 264.59L309.63 264.63L309.09 264.64L307.33 264.68L308.58 265.64L309.2 266.17L309.55 266.68L309.64 267.26L309.5 267.97L309.12 268.92L309.03 269.19L309.06 269.31L309.25 269.26L309.63 269.05L310.22 268.65L311.57 267.65L312.88 268.61L314.2 269.53L313.98 268.71L313.88 268.42L313.78 268.09L313.67 267.75L313.58 267.44L313.5 267.18L313.46 266.86L313.51 266.58L313.67 266.33L313.97 266.08L314.41 265.81L315.12 265.38L315.45 265.06L315.37 264.83L314.9 264.68L314.01 264.58L313.33 264.51L312.85 264.39L312.52 264.18L312.27 263.82L312.04 263.28L311.6 262.08L311.2 263.04L311.08 263.37ZM165.08 252.84L164.94 253.19L164.81 253.5L164.7 253.77L164.64 253.94L164.52 254.08L164.29 254.2L163.95 254.3L163.55 254.36L163.1 254.39L161.72 254.39L162.88 255.24L163.45 255.67L163.77 256.01L163.87 256.35L163.78 256.8L163.54 257.46L163.03 258.83L164.34 257.98L165.7 257.16L166.97 258.04L167.5 258.43L167.84 258.64L168.01 258.68L168.04 258.56L167.96 258.28L167.62 257.35L167.5 256.64L167.61 256.07L167.95 255.6L168.54 255.14L169.75 254.39L168.21 254.39L167.49 254.37L167.01 254.27L166.69 254.04L166.44 253.61L166.17 252.92L165.62 251.48L165.22 252.5L165.08 252.84ZM155.81 213.27L155.57 213.7L155.24 213.93L154.72 214.02L153.91 214.03L152.23 214.03L153.62 214.92L154.1 215.26L154.48 215.57L154.72 215.85L154.84 216.1L154.82 216.33L154.74 216.53L154.65 216.79L154.54 217.09L154.44 217.41L154.34 217.73L154.13 218.62L155.26 217.86L155.93 217.42L156.4 217.2L156.81 217.19L157.27 217.4L157.92 217.83L158.48 218.16L158.82 218.25L158.94 218.08L158.86 217.62L158.58 216.87L158.43 216.43L158.42 216.09L158.55 215.78L158.88 215.43L159.42 214.99L160.62 214.07L159.09 214.03L158.37 214.02L157.89 213.92L157.57 213.69L157.31 213.25L157.05 212.56L156.53 211.13L156.06 212.56L155.81 213.27Z" id="a400hHTW23"></path><path d="M269.89 210.93L270.07 213.03L269.05 215.2L267.3 216.56L265.37 216.89L263.59 216.3L262.3 214.91L261.82 212.8L261.98 211.77L262.39 210.74L263.01 209.81L263.76 209.05L264.6 208.56L266.9 208.33L268.75 209.24L269.89 210.93ZM265.2 209.97L264.42 210.58L263.46 212.1L263.43 213.67L264.21 214.9L265.69 215.4L267.48 214.72L268.48 213.11L268.51 211.29L267.34 209.93L266.59 209.66L265.9 209.67L265.2 209.97Z" id="b9rsZjQcfP"></path><path d="M274.63 220.22C275.51 221.04 276.02 221.22 277.41 221.22C278.76 221.22 279.05 221.32 278.98 221.76C278.72 223.1 279.71 222.45 280.62 220.7C281.17 219.64 281.6 218.75 281.6 218.68C281.6 218.62 280.88 218.31 279.96 218.03C278.17 217.45 277.3 217.86 278.54 218.72C279.12 219.13 279.16 219.23 278.69 219.51C276.97 220.53 275.04 219.33 275.04 217.28C275.04 214.41 279.09 213.01 280.11 215.5C280.44 216.29 281.5 216.97 281.86 216.63C282.33 216.19 281.06 213.93 280 213.32C278.69 212.56 277.85 212.53 276.28 213.14C273.39 214.34 272.48 218.21 274.63 220.22Z" id="d3zj2v0lDD"></path><path d="M284.38 224.63C284.6 224.63 285.07 224.02 285.44 223.27C285.8 222.51 286.17 221.9 286.24 221.9C286.31 221.9 287.19 222.28 288.17 222.75C290.11 223.68 290.18 223.81 289.63 225.66C289.38 226.45 289.41 226.93 289.67 227.2C290.25 227.75 291.09 226.41 291.09 224.91C291.09 223.85 291.24 223.61 291.79 223.61C292.66 223.61 294.01 222.07 294.01 221.08C294.01 219.85 292.99 218.86 290.36 217.62C288.98 216.97 287.77 216.43 287.66 216.43C287.59 216.43 286.53 218.17 285.33 220.26C283.28 223.95 283.14 224.6 284.38 224.63Z" id="bc33ByAUp"></path><path d="M294.41 229.56C295.22 230.24 301.39 233.18 301.68 233.01C302.52 232.53 301.9 231.88 299.23 230.45C297.66 229.63 296.35 228.94 296.28 228.88C296.17 228.81 296.75 227.85 297.52 226.76C297.55 226.69 298.65 227.17 299.96 227.85C301.24 228.53 302.41 228.98 302.52 228.84C303.1 228.29 302.63 227.78 300.58 226.69C299.38 226.04 298.39 225.46 298.39 225.35C298.43 225.25 298.61 224.81 298.87 224.4C299.31 223.64 299.31 223.68 302.19 225.18C304.38 226.34 305.14 226.62 305.4 226.28C305.55 226.04 305.69 225.73 305.69 225.59C305.69 225.39 299.34 221.9 298.98 221.9C298.87 221.9 298.14 222.93 297.37 224.19C294.93 228.19 294.23 229.42 294.41 229.56Z" id="cjZlpWGbP"></path><path d="M308.43 231.51C308.58 231.88 309.41 232.98 310.29 233.94C312.01 235.71 312.22 236.71 310.95 236.88C310 237.01 307.88 235.41 307.88 234.52C307.88 234.18 307.55 233.73 307.15 233.53C306.06 232.98 305.76 234 306.6 235.48C307.92 237.77 311.79 239.07 313.1 237.7C314.16 236.6 313.87 235.41 312.08 233.53C310.18 231.54 309.93 230.45 311.35 230.45C312.41 230.45 314.23 231.95 313.98 232.64C313.87 232.88 314.12 233.25 314.52 233.49C315.14 233.87 315.33 233.83 315.58 233.46C316.79 231.71 312.19 228.19 309.82 229.08C308.79 229.46 308.14 230.62 308.43 231.51Z" id="b94M1Ugud"></path><path d="M320.69 240.43C322.33 242.28 322.55 243.44 321.24 243.44C320.03 243.44 318.47 242.18 318.47 241.22C318.47 240.74 318.17 240.23 317.77 240.02C316.75 239.51 316.64 239.58 316.64 240.67C316.64 242.79 320.58 245.56 322.63 244.84C323.76 244.43 324.41 243.31 324.09 242.31C323.98 241.9 323.21 240.84 322.41 239.92C320.95 238.28 320.73 237.22 321.79 237.01C322.63 236.88 324.3 238.25 324.3 239.07C324.3 239.72 325.22 240.67 325.87 240.71C326.38 240.71 326.09 238.48 325.47 237.73C324.56 236.67 322.44 235.58 321.31 235.58C320.73 235.58 319.96 235.89 319.52 236.3C318.5 237.25 318.83 238.35 320.69 240.43Z" id="a3os8JyB2A"></path><path d="M335.31 244.96L335.89 246.81L335.36 248.88L334.21 250.31L332.76 251.21L331.17 251.54L329.63 251.27L328.28 250.35L327.44 249.05L327.21 247.63L327.56 246.19L328.48 244.86L329.93 243.72L332.03 243.13L333.92 243.64L335.31 244.96ZM330.44 245.05L329.28 246.07L328.74 247.31L328.86 248.56L329.67 249.6L330.56 250.05L331.48 250.11L332.44 249.79L333.43 249.09L334.11 248.11L334.34 247.01L334.12 245.95L333.47 245.12L332.74 244.67L332.05 244.51L331.3 244.63L330.44 245.05Z" id="a1HViKHjxZ"></path></defs><g><g><g><use xlink:href="#egMbkgn0z" opacity="1" fill="#e4d00b" fill-opacity="1"></use></g><g><use xlink:href="#f1lP3Wev96" opacity="1" fill="#ffffff" fill-opacity="1"></use><g><use xlink:href="#f1lP3Wev96" opacity="1" fill-opacity="0" stroke="#000000" stroke-width="1" stroke-opacity="1"></use></g></g><g><use xlink:href="#bh1FX942h" opacity="1" fill="#29980b" fill-opacity="1"></use><g><use xlink:href="#bh1FX942h" opacity="1" fill-opacity="0" stroke="#000000" stroke-width="1" stroke-opacity="0"></use></g></g><g><use xlink:href="#f1WJQddDsq" opacity="1" fill="#043ab3" fill-opacity="1"></use><g><use xlink:href="#f1WJQddDsq" opacity="1" fill-opacity="0" stroke="#000000" stroke-width="1" stroke-opacity="0"></use></g></g><g><use xlink:href="#a2pTBC3IiV" opacity="1" fill="#000000" fill-opacity="1"></use><g><use xlink:href="#a2pTBC3IiV" opacity="1" fill-opacity="0" stroke="#000000" stroke-width="1" stroke-opacity="0"></use></g></g><g><use xlink:href="#anUfeUahC" opacity="1" fill="#000000" fill-opacity="1"></use><g><use xlink:href="#anUfeUahC" opacity="1" fill-opacity="0" stroke="#000000" stroke-width="1" stroke-opacity="0"></use></g></g><g><use xlink:href="#j8stUTNUs" opacity="1" fill="#000000" fill-opacity="1"></use><g><use xlink:href="#j8stUTNUs" opacity="1" fill-opacity="0" stroke="#000000" stroke-width="1" stroke-opacity="0"></use></g></g><g><use xlink:href="#c27Fv5toHd" opacity="1" fill="#000000" fill-opacity="1"></use><g><use xlink:href="#c27Fv5toHd" opacity="1" fill-opacity="0" stroke="#000000" stroke-width="1" stroke-opacity="0"></use></g></g><g><use xlink:href="#c17psryHC" opacity="1" fill="#000000" fill-opacity="1"></use><g><use xlink:href="#c17psryHC" opacity="1" fill-opacity="0" stroke="#000000" stroke-width="1" stroke-opacity="0"></use></g></g><g><use xlink:href="#eqxNMQ16G" opacity="1" fill="#000000" fill-opacity="1"></use><g><use xlink:href="#eqxNMQ16G" opacity="1" fill-opacity="0" stroke="#000000" stroke-width="1" stroke-opacity="0"></use></g></g><g><use xlink:href="#aqqKVPGIu" opacity="1" fill="#000000" fill-opacity="1"></use><g><use xlink:href="#aqqKVPGIu" opacity="1" fill-opacity="0" stroke="#000000" stroke-width="1" stroke-opacity="0"></use></g></g><g><use xlink:href="#b3mf0ynolg" opacity="1" fill="#000000" fill-opacity="1"></use><g><use xlink:href="#b3mf0ynolg" opacity="1" fill-opacity="0" stroke="#000000" stroke-width="1" stroke-opacity="0"></use></g></g><g><use xlink:href="#a400hHTW23" opacity="1" fill="#043ab3" fill-opacity="1"></use><g><use xlink:href="#a400hHTW23" opacity="1" fill-opacity="0" stroke="#000000" stroke-width="1" stroke-opacity="0"></use></g></g><g><use xlink:href="#b9rsZjQcfP" opacity="1" fill="#000000" fill-opacity="1"></use><g><use xlink:href="#b9rsZjQcfP" opacity="1" fill-opacity="0" stroke="#000000" stroke-width="1" stroke-opacity="0"></use></g></g><g><use xlink:href="#d3zj2v0lDD" opacity="1" fill="#000000" fill-opacity="1"></use><g><use xlink:href="#d3zj2v0lDD" opacity="1" fill-opacity="0" stroke="#000000" stroke-width="1" stroke-opacity="0"></use></g></g><g><use xlink:href="#bc33ByAUp" opacity="1" fill="#000000" fill-opacity="1"></use><g><use xlink:href="#bc33ByAUp" opacity="1" fill-opacity="0" stroke="#000000" stroke-width="1" stroke-opacity="0"></use></g></g><g><use xlink:href="#cjZlpWGbP" opacity="1" fill="#000000" fill-opacity="1"></use><g><use xlink:href="#cjZlpWGbP" opacity="1" fill-opacity="0" stroke="#000000" stroke-width="1" stroke-opacity="0"></use></g></g><g><use xlink:href="#b94M1Ugud" opacity="1" fill="#000000" fill-opacity="1"></use><g><use xlink:href="#b94M1Ugud" opacity="1" fill-opacity="0" stroke="#000000" stroke-width="1" stroke-opacity="0"></use></g></g><g><use xlink:href="#a3os8JyB2A" opacity="1" fill="#000000" fill-opacity="1"></use><g><use xlink:href="#a3os8JyB2A" opacity="1" fill-opacity="0" stroke="#000000" stroke-width="1" stroke-opacity="0"></use></g></g><g><use xlink:href="#a1HViKHjxZ" opacity="1" fill="#000000" fill-opacity="1"></use><g><use xlink:href="#a1HViKHjxZ" opacity="1" fill-opacity="0" stroke="#000000" stroke-width="1" stroke-opacity="0"></use></g></g></g></g></svg>