<svg width="1104" height="732" viewBox="0 0 1104 732" version="1.1" xmlns="http://www.w3.org/2000/svg" xmlns:xlink="http://www.w3.org/1999/xlink">
<title>Brazil Flag</title>
<desc>Created using Figma</desc>
<g id="Canvas" transform="matrix(3 0 0 3 -23745 -732)">
<g id="Brazil Flag" filter="url(#filter0_d)">
<g id="Vector">
<use xlink:href="#path0_fill" transform="translate(7919 244)" fill="#73AF00"/>
</g>
<g id="Vector">
<use xlink:href="#path1_fill" transform="translate(7961.97 276.094)" fill="#FFE15A"/>
</g>
<g id="Vector">
<use xlink:href="#path2_fill" transform="translate(8049.35 312.275)" fill="#41479B"/>
</g>
<g id="Group">
<g id="Vector">
<use xlink:href="#path3_fill" transform="translate(8051.04 336.478)" fill="#F5F5F5"/>
</g>
<g id="Vector">
<use xlink:href="#path4_fill" transform="translate(8093.93 378.489)" fill="#F5F5F5"/>
</g>
<g id="Vector">
<use xlink:href="#path5_fill" transform="translate(8114.23 388.962)" fill="#F5F5F5"/>
</g>
<g id="Vector">
<use xlink:href="#path6_fill" transform="translate(8090.96 371.179)" fill="#F5F5F5"/>
</g>
<g id="Vector">
<use xlink:href="#path7_fill" transform="translate(8059.46 369.11)" fill="#F5F5F5"/>
</g>
<g id="Vector">
<use xlink:href="#path8_fill" transform="translate(8085.81 388.375)" fill="#F5F5F5"/>
</g>
<g id="Vector">
<use xlink:href="#path9_fill" transform="translate(8071.87 367.949)" fill="#F5F5F5"/>
</g>
<g id="Vector">
<use xlink:href="#path10_fill" transform="translate(8115.42 339.115)" fill="#F5F5F5"/>
</g>
<g id="Vector">
<use xlink:href="#path11_fill" transform="translate(8062.05 359.414)" fill="#F5F5F5"/>
</g>
<g id="Vector">
<use xlink:href="#path12_fill" transform="translate(8067.86 379.008)" fill="#F5F5F5"/>
</g>
<g id="Vector">
<use xlink:href="#path13_fill" transform="translate(8123.96 389.442)" fill="#F5F5F5"/>
</g>
<g id="Vector">
<use xlink:href="#path14_fill" transform="translate(8128.19 379.26)" fill="#F5F5F5"/>
</g>
</g>
</g>
</g>
<defs>
<filter id="filter0_d" filterUnits="userSpaceOnUse" x="7915" y="244" width="368" height="244" color-interpolation-filters="sRGB">
<feFlood flood-opacity="0" result="BackgroundImageFix"/>
<feColorMatrix in="SourceAlpha" type="matrix" values="0 0 0 0 0 0 0 0 0 0 0 0 0 0 0 0 0 0 255 0"/>
<feOffset dx="0" dy="4"/>
<feGaussianBlur stdDeviation="2"/>
<feColorMatrix type="matrix" values="0 0 0 0 0 0 0 0 0 0 0 0 0 0 0 0 0 0 0.2 0"/>
<feBlend mode="normal" in2="BackgroundImageFix" result="effect1_dropShadow"/>
<feBlend mode="normal" in="SourceGraphic" in2="effect1_dropShadow" result="shape"/>
</filter>
<path id="path0_fill" d="M 333.039 1.07287e-06L 26.9613 1.07287e-06C 12.0705 1.07287e-06 0 12.0704 0 26.961L 0 208.899C 0 223.789 12.0705 235.86 26.9613 235.86L 333.039 235.86C 347.929 235.86 360 223.79 360 208.899L 360 26.961C 360 12.0704 347.929 1.07287e-06 333.039 1.07287e-06Z"/>
<path id="path1_fill" d="M 133.801 0.904382L 2.98002 80.5329C -0.993342 82.9509 -0.993342 88.7178 2.98002 91.1366L 133.801 170.766C 135.783 171.973 138.273 171.973 140.255 170.766L 271.076 91.1373C 275.049 88.7193 275.049 82.9523 271.076 80.5336L 140.255 0.904382C 138.273 -0.30146 135.783 -0.30146 133.801 0.904382Z"/>
<path id="path2_fill" d="M 49.6547 99.308C 77.0782 99.308 99.3094 77.0771 99.3094 49.654C 99.3094 22.2308 77.0782 0 49.6547 0C 22.2312 0 3.43323e-06 22.2308 3.43323e-06 49.654C 3.43323e-06 77.0771 22.2312 99.308 49.6547 99.308Z"/>
<path id="path3_fill" d="M 5.34726 0.0502496C 3.00445 3.97223 1.19531 8.23452 -1.28746e-06 12.7605C 27.5266 10.6891 68.2467 18.3896 94.1639 43.5379C 95.8556 39.2201 96.9729 34.6203 97.3913 29.8117C 70.6303 7.28883 33.6326 -0.720365 5.34726 0.0502496Z"/>
<path id="path4_fill" d="M 7.12872 0.385482L 8.4506 4.34965L 12.6293 4.38198C 13.17 4.3862 13.3943 5.07667 12.9591 5.39799L 9.59741 7.88069L 10.8581 11.8645C 11.0212 12.3806 10.4334 12.8074 9.99397 12.4924L 6.59436 10.0625L 3.19475 12.4924C 2.75459 12.8067 2.16748 12.3806 2.33061 11.8645L 3.59131 7.88069L 0.229674 5.39799C -0.205561 5.07667 0.018732 4.3862 0.559435 4.38198L 4.7381 4.34965L 6.05998 0.385482C 6.23154 -0.128495 6.95716 -0.128495 7.12872 0.385482Z"/>
<path id="path5_fill" d="M 3.0704 0.166121L 3.63924 1.87187L 5.43783 1.88593C 5.67056 1.88734 5.76689 2.18476 5.57985 2.32327L 4.13283 3.39129L 4.67494 5.10621C 4.74455 5.32839 4.49283 5.51189 4.30229 5.37619L 2.83909 4.33065L 1.37589 5.37619C 1.18675 5.51189 0.933608 5.32839 1.00392 5.10621L 1.54603 3.39129L 0.0990071 2.32327C -0.0887273 2.18546 0.00830106 1.88804 0.241035 1.88593L 2.03964 1.87187L 2.60846 0.166121C 2.68369 -0.0553605 2.99657 -0.0553605 3.0704 0.166121Z"/>
<path id="path6_fill" d="M 3.0701 0.164529L 3.63892 1.87028L 5.43752 1.88436C 5.67025 1.88577 5.76729 2.18317 5.57956 2.32168L 4.13253 3.38972L 4.67463 5.10462C 4.74424 5.3268 4.49252 5.51032 4.30267 5.37462L 2.83948 4.32908L 1.37628 5.37462C 1.18714 5.51032 0.934001 5.3268 1.00361 5.10462L 1.54573 3.38972L 0.0986976 2.32168C -0.0883336 2.18387 0.00799156 1.88647 0.240726 1.88436L 2.03932 1.87028L 2.60815 0.164529C 2.68339 -0.0548426 2.99627 -0.0548426 3.0701 0.164529Z"/>
<path id="path7_fill" d="M 3.07041 0.165066L 3.63924 1.87082L 5.43783 1.88487C 5.67056 1.88628 5.7676 2.18371 5.57987 2.32222L 4.13284 3.39024L 4.67494 5.10513C 4.74455 5.32732 4.49284 5.51083 4.30229 5.37513L 2.83908 4.3296L 1.37588 5.37513C 1.18674 5.51013 0.933609 5.32732 1.00392 5.10513L 1.54604 3.39024L 0.0990091 2.32222C -0.0887253 2.18441 0.00830303 1.88698 0.241037 1.88487L 2.03963 1.87082L 2.60846 0.165066C 2.6844 -0.0550086 2.99659 -0.0550086 3.07041 0.165066Z"/>
<path id="path8_fill" d="M 3.0701 0.165589L 3.63893 1.87134L 5.43752 1.8854C 5.67026 1.8868 5.76729 2.18423 5.57955 2.32274L 4.13252 3.39078L 4.67463 5.10568C 4.74424 5.32786 4.49252 5.51138 4.30268 5.37568L 2.83947 4.33014L 1.37627 5.37568C 1.18713 5.51138 0.934008 5.32786 1.00362 5.10568L 1.54572 3.39078L 0.098694 2.32274C -0.0883372 2.18493 0.00798795 1.88751 0.240722 1.8854L 2.03932 1.87134L 2.60815 0.165589C 2.68408 -0.0551887 2.99697 -0.0551887 3.0701 0.165589Z"/>
<path id="path9_fill" d="M 2.50921 0.134992L 2.97467 1.52998L 4.44561 1.54193C 4.63545 1.54334 4.71491 1.78662 4.56233 1.89982L 3.37897 2.77309L 3.82264 4.17509C 3.8803 4.3565 3.67358 4.50696 3.51819 4.39587L 2.32147 3.54088L 1.12475 4.39587C 0.969355 4.50696 0.763341 4.3565 0.820294 4.17509L 1.26396 2.77309L 0.0806048 1.89982C -0.0719733 1.78662 0.00607378 1.54334 0.197324 1.54193L 1.66827 1.52998L 2.13373 0.134992C 2.19349 -0.0450059 2.44874 -0.0450059 2.50921 0.134992Z"/>
<path id="path10_fill" d="M 3.13877 0.170861L 3.72096 1.91599L 5.56033 1.93005C 5.79869 1.93146 5.89712 2.23591 5.70517 2.37793L 4.22579 3.47058L 4.78056 5.22484C 4.85298 5.45195 4.59354 5.63969 4.40018 5.50117L 2.90322 4.43103L 1.40627 5.50117C 1.21221 5.64039 0.954153 5.45125 1.02587 5.22484L 1.58064 3.47058L 0.10126 2.37793C -0.0906927 2.23661 0.00844343 1.93287 0.2461 1.93005L 2.08549 1.91599L 2.66766 0.170861C 2.7436 -0.0569479 3.06353 -0.0569479 3.13877 0.170861Z"/>
<path id="path11_fill" d="M 2.50951 0.135529L 2.97498 1.53051L 4.44592 1.54246C 4.63577 1.54386 4.71522 1.78714 4.56264 1.90034L 3.37927 2.77362L 3.82295 4.17562C 3.88061 4.35702 3.67389 4.50749 3.5185 4.3964L 2.32177 3.54143L 1.12506 4.3964C 0.969668 4.50749 0.763653 4.35702 0.820606 4.17562L 1.26428 2.77362L 0.0809175 1.90034C -0.0723637 1.78714 0.00638651 1.54457 0.197637 1.54246L 1.66857 1.53051L 2.13404 0.135529C 2.19381 -0.0451713 2.44904 -0.0451713 2.50951 0.135529Z"/>
<path id="path12_fill" d="M 3.8012 0.205657L 4.50573 2.31852L 6.73323 2.33539C 7.02151 2.3375 7.14105 2.70524 6.90901 2.8768L 5.11675 4.20005L 5.78893 6.32348C 5.87612 6.59839 5.56323 6.82619 5.32839 6.65815L 3.51573 5.36231L 1.70308 6.65815C 1.46894 6.82549 1.15535 6.59839 1.24254 6.32348L 1.91472 4.20005L 0.122457 2.8768C -0.109575 2.70524 0.00995674 2.3375 0.298238 2.33539L 2.52574 2.31852L 3.23027 0.205657C 3.32378 -0.0685582 3.7105 -0.0685582 3.8012 0.205657Z"/>
<path id="path13_fill" d="M 2.3907 0.129189L 2.83436 1.4588L 4.2357 1.46933C 4.4171 1.47074 4.49233 1.70207 4.34678 1.80964L 3.21968 2.64213L 3.64226 3.97804C 3.6964 4.15101 3.50021 4.29375 3.35186 4.18828L 2.21209 3.37337L 1.07163 4.18828C 0.923978 4.29375 0.727107 4.15101 0.781248 3.97804L 1.20381 2.64213L 0.0767064 1.80964C -0.0688405 1.70207 0.00638653 1.47074 0.187793 1.46933L 1.58913 1.4588L 2.0321 0.129189C 2.08976 -0.043074 2.33375 -0.043074 2.3907 0.129189Z"/>
<path id="path14_fill" d="M 3.06941 0.166108L 3.63823 1.87186L 5.43681 1.88594C 5.66954 1.88734 5.76659 2.18475 5.57886 2.32326L 4.13182 3.3913L 4.67393 5.1062C 4.74353 5.32838 4.49182 5.5119 4.30198 5.37619L 2.83878 4.33066L 1.37556 5.37619C 1.18642 5.5119 0.9333 5.32838 1.00361 5.1062L 1.54572 3.3913L 0.0986993 2.32326C -0.0883319 2.18545 0.00799328 1.88805 0.240728 1.88594L 2.03931 1.87186L 2.60815 0.166108C 2.68268 -0.0553734 2.99558 -0.0553734 3.06941 0.166108Z"/>
</defs>
</svg>
